<svg width="18" height="20" viewBox="0 0 18 20" fill="none" xmlns="http://www.w3.org/2000/svg">
<path fill-rule="evenodd" clip-rule="evenodd" d="M10.414 2.05532C10.2106 2.00649 9.98288 2.00006 9.20151 2.00006H6.98974C6.13316 2.00006 5.55086 2.00084 5.10077 2.03761C4.66236 2.07343 4.43816 2.13836 4.28176 2.21805C3.90543 2.4098 3.59947 2.71576 3.40772 3.09208C3.32803 3.24848 3.26311 3.47269 3.22729 3.9111C3.19051 4.36119 3.18974 4.94348 3.18974 5.80006V9.00006H1.18974L1.18974 5.75876C1.18972 4.95379 1.18971 4.28943 1.23393 3.74824C1.27986 3.18614 1.37842 2.66944 1.62571 2.1841C2.0092 1.43145 2.62113 0.81953 3.37377 0.436037C3.85911 0.188746 4.37581 0.0901819 4.93791 0.0442567C5.47911 3.9354e-05 6.14347 4.98449e-05 6.94844 6.26003e-05L9.20151 6.30771e-05C9.23592 6.30771e-05 9.26987 4.68646e-05 9.30339 3.08906e-05C9.93839 -0.000271186 10.4182 -0.000499591 10.8809 0.110583C11.289 0.20857 11.6792 0.370188 12.0371 0.589502C12.4428 0.838129 12.7819 1.17756 13.2307 1.62678C13.2544 1.65049 13.2784 1.67451 13.3027 1.69884L15.491 3.88707C15.5153 3.9114 15.5393 3.9354 15.563 3.95909C16.0122 4.40789 16.3517 4.74699 16.6003 5.15271C16.8196 5.5106 16.9812 5.90078 17.0792 6.30892C17.1903 6.77162 17.1901 7.25141 17.1898 7.8864C17.1898 7.91993 17.1897 7.95388 17.1897 7.98829V12.2413C17.1897 13.0463 17.1898 13.7107 17.1455 14.2519C17.0996 14.814 17.0011 15.3307 16.7538 15.816C16.3703 16.5687 15.7583 17.1806 15.0057 17.5641C14.5204 17.8114 14.0037 17.9099 13.4416 17.9559C12.9004 18.0001 12.236 18.0001 11.4311 18.0001H10.1897V16.0001H11.3897C12.2463 16.0001 12.8286 15.9993 13.2787 15.9625C13.7171 15.9267 13.9413 15.8618 14.0977 15.7821C14.474 15.5903 14.78 15.2844 14.9717 14.908C15.0514 14.7516 15.1164 14.5274 15.1522 14.089C15.189 13.6389 15.1897 13.0566 15.1897 12.2001V7.98829C15.1897 7.20692 15.1833 6.97922 15.1345 6.77581C15.0855 6.57174 15.0047 6.37665 14.895 6.19771C14.7857 6.01935 14.6293 5.85379 14.0767 5.30128L11.8885 3.11306C11.336 2.56055 11.1705 2.40408 10.9921 2.29478C10.8131 2.18513 10.6181 2.10432 10.414 2.05532Z" fill="#303030"/>
<path fill-rule="evenodd" clip-rule="evenodd" d="M2.71539 13.5257L3.62053 10.8103H4.75895L5.66408 13.5257L8.37947 14.4309V15.5693L5.66408 16.4744L4.75895 19.1898H3.62053L2.71539 16.4744L0 15.5693V14.4309L2.71539 13.5257Z" fill="#303030"/>
<path fill-rule="evenodd" clip-rule="evenodd" d="M11.1897 2.00006V6.00006H15.1897V8.00006H10.1897C9.63745 8.00006 9.18974 7.55235 9.18974 7.00006V2.00006H11.1897Z" fill="#303030"/>
</svg>
