<svg
  viewBox="0 0 24 24"
  fill="none"
  xmlns="http://www.w3.org/2000/svg"
>
  <path
    fillRule="evenodd"
    clipRule="evenodd"
    d="M10.5 7.5C10.5 6.67157 11.1716 6 12 6H12.75C13.5784 6 14.25 6.67157 14.25 7.5V9.75C14.25 10.5784 13.5784 11.25 12.75 11.25H12C11.1716 11.25 10.5 10.5784 10.5 9.75V7.5ZM9.75 9C9.95711 9 10.125 9.16789 10.125 9.375V9.75C10.125 10.7855 10.9645 11.625 12 11.625H12.375H12.75C13.7855 11.625 14.625 10.7855 14.625 9.75V9.375C14.625 9.16789 14.7929 9 15 9C15.2071 9 15.375 9.16789 15.375 9.375V9.75C15.375 11.1997 14.1997 12.375 12.75 12.375V13.125C12.75 13.3321 12.5821 13.5 12.375 13.5C12.1679 13.5 12 13.3321 12 13.125V12.375C10.5503 12.375 9.375 11.1997 9.375 9.75V9.375C9.375 9.16789 9.54289 9 9.75 9Z"
    fill="currentColor"
  />
</svg>